<svg width="25" height="24" viewBox="0 0 25 24" fill="none" xmlns="http://www.w3.org/2000/svg">
<path d="M19.7 3H5.3C4.30589 3 3.5 3.80589 3.5 4.8V8.4C3.5 9.39411 4.30589 10.2 5.3 10.2H19.7C20.6941 10.2 21.5 9.39411 21.5 8.4V4.8C21.5 3.80589 20.6941 3 19.7 3Z" stroke="#084892" stroke-width="2" stroke-linecap="round" stroke-linejoin="round"/>
<path d="M19.7 13.8H5.3C4.30589 13.8 3.5 14.6059 3.5 15.6V19.2C3.5 20.1942 4.30589 21 5.3 21H19.7C20.6941 21 21.5 20.1942 21.5 19.2V15.6C21.5 14.6059 20.6941 13.8 19.7 13.8Z" stroke="#084892" stroke-width="2" stroke-linecap="round" stroke-linejoin="round"/>
<path d="M7.09985 6.59985H7.1093" stroke="#084892" stroke-width="2" stroke-linecap="round" stroke-linejoin="round"/>
<path d="M7.09985 17.3999H7.1093" stroke="#084892" stroke-width="2" stroke-linecap="round" stroke-linejoin="round"/>
</svg>
