<svg width="91" height="84" viewBox="0 0 91 84" fill="none" xmlns="http://www.w3.org/2000/svg">
<path d="M89.72 30.2096C88.76 29.0196 87.32 28.3196 85.79 28.3196H80.74C80.74 25.5296 78.48 23.2696 75.69 23.2696H70.64V18.2196C70.64 15.4296 68.38 13.1696 65.59 13.1696H63.07V3.07956C63.07 1.68956 61.94 0.55957 60.55 0.55957H10.09C8.69 0.55957 7.57 1.68956 7.57 3.07956V13.1696H5.05C2.26 13.1696 0 15.4296 0 18.2196V78.7696C0 81.5596 2.26 83.8196 5.05 83.8196H75.7C78.07 83.8196 80.11 82.1796 80.62 79.8696L90.71 34.4496C91.05 32.9596 90.68 31.3896 89.72 30.1996V30.2096ZM7.57 78.7796H5.05V18.2296H7.57V78.7796ZM60.55 23.2696C57.76 23.2696 55.5 25.5296 55.5 28.3196H25.22C22.85 28.3196 20.8 29.9596 20.29 32.2696C20.29 32.2696 10.08 78.4196 10.08 78.7796V3.08957H60.54V23.2696H60.55ZM65.6 23.2696H63.08V18.2196H65.6V23.2696ZM50.12 14.2696H20.01C18.62 14.2696 17.49 13.1396 17.49 11.7496C17.49 10.3596 18.62 9.22958 20.01 9.22958H50.12C51.51 9.22958 52.64 10.3596 52.64 11.7496C52.64 13.1396 51.51 14.2696 50.12 14.2696ZM50.12 24.5296H20.01C18.62 24.5296 17.49 23.3996 17.49 22.0096C17.49 20.6196 18.62 19.4896 20.01 19.4896H50.12C51.51 19.4896 52.64 20.6196 52.64 22.0096C52.64 23.3996 51.51 24.5296 50.12 24.5296Z" fill="#084892"/>
</svg>
