<svg width="18" height="12" viewBox="0 0 18 12" fill="none" xmlns="http://www.w3.org/2000/svg">
<path d="M6.11727 8.35535C8.1482 8.35535 9.79457 6.70899 9.79457 4.67804C9.79457 2.64712 8.1482 1.00073 6.11727 1.00073C4.08635 1.00073 2.43996 2.64712 2.43996 4.67804C2.43996 6.70899 4.08635 8.35535 6.11727 8.35535Z" stroke="#767676" stroke-width="1.5" stroke-miterlimit="10"/>
<path d="M10.885 1.13782C11.3908 0.995317 11.9212 0.962853 12.4406 1.04262C12.9601 1.12238 13.4563 1.31252 13.896 1.60023C14.3358 1.88794 14.7087 2.26653 14.9898 2.71052C15.2708 3.1545 15.4535 3.65356 15.5255 4.17409C15.5974 4.69462 15.557 5.22452 15.4069 5.72812C15.2568 6.23173 15.0006 6.69732 14.6555 7.09347C14.3103 7.48969 13.8842 7.80733 13.4059 8.02506C12.9276 8.24272 12.4083 8.35537 11.8828 8.35546" stroke="#767676" stroke-width="1.5" stroke-linecap="round" stroke-linejoin="round"/>
<path d="M1.02557 11.0001C1.59989 10.1831 2.36234 9.51641 3.24855 9.05608C4.13475 8.59584 5.11869 8.35547 6.1173 8.35547C7.11591 8.35547 8.09987 8.59567 8.9861 9.05592C9.87236 9.51608 10.6348 10.1828 11.2092 10.9997" stroke="#767676" stroke-width="1.5" stroke-linecap="round" stroke-linejoin="round"/>
<path d="M11.8828 8.35547C12.8814 8.35473 13.8656 8.59469 14.752 9.05493C15.6383 9.51526 16.4006 10.1823 16.9744 10.9997" stroke="#767676" stroke-width="1.5" stroke-linecap="round" stroke-linejoin="round"/>
</svg>
