<svg width="14" height="15" viewBox="0 0 14 15" fill="none" xmlns="http://www.w3.org/2000/svg">
<path d="M6.99935 1.66699C3.77352 1.66699 1.16602 4.29199 1.16602 7.50033C1.16602 10.7087 3.79102 13.3337 6.99935 13.3337C10.2077 13.3337 12.8327 10.7087 12.8327 7.50033C12.8327 4.29199 10.2077 1.66699 6.99935 1.66699ZM6.99935 12.167C4.42102 12.167 2.33268 10.0787 2.33268 7.50033C2.33268 4.92199 4.42102 2.83366 6.99935 2.83366C9.57768 2.83366 11.666 4.92199 11.666 7.50033C11.666 10.0787 9.57768 12.167 6.99935 12.167ZM4.66602 8.66699L4.08268 5.16699L5.83268 6.33366L6.99935 4.58366L8.16602 6.33366L9.91602 5.16699L9.33268 8.66699H4.66602ZM4.99268 9.83366C4.79435 9.83366 4.66602 9.70533 4.66602 9.50699V9.25033H9.33268V9.50699C9.33268 9.70533 9.20435 9.83366 9.00602 9.83366H4.99268Z" fill="#F8AF2C"/>
</svg>
