<svg width="9" height="8" viewBox="0 0 9 8" fill="none" xmlns="http://www.w3.org/2000/svg">
<path d="M4.5 7.70996C2.42888 7.70996 0.75 6.03109 0.75 3.95996C0.75 1.88921 2.42888 0.209961 4.5 0.209961C6.57113 0.209961 8.25 1.88921 8.25 3.95996C8.25 6.03109 6.57113 7.70996 4.5 7.70996ZM4.5 2.08496C4.40054 2.08496 4.30516 2.12447 4.23484 2.1948C4.16451 2.26512 4.125 2.3605 4.125 2.45996V4.33496C4.125 4.43442 4.16451 4.5298 4.23484 4.60013C4.30516 4.67045 4.40054 4.70996 4.5 4.70996C4.59946 4.70996 4.69484 4.67045 4.76516 4.60013C4.83549 4.5298 4.875 4.43442 4.875 4.33496V2.45996C4.875 2.3605 4.83549 2.26512 4.76516 2.1948C4.69484 2.12447 4.59946 2.08496 4.5 2.08496ZM4.5 5.83496C4.59946 5.83496 4.69484 5.79545 4.76516 5.72513C4.83549 5.6548 4.875 5.55942 4.875 5.45996C4.875 5.3605 4.83549 5.26512 4.76516 5.1948C4.69484 5.12447 4.59946 5.08496 4.5 5.08496C4.40054 5.08496 4.30516 5.12447 4.23484 5.1948C4.16451 5.26512 4.125 5.3605 4.125 5.45996C4.125 5.55942 4.16451 5.6548 4.23484 5.72513C4.30516 5.79545 4.40054 5.83496 4.5 5.83496Z" fill="#FF403B"/>
</svg>
