<svg width="25" height="24" viewBox="0 0 25 24" fill="none" xmlns="http://www.w3.org/2000/svg">
<path d="M21.1087 17.4782H19.0246C18.6857 16.3505 17.6495 15.5217 16.413 15.5217C15.1765 15.5217 14.1411 16.3505 13.8015 17.4782H3.89124C3.45924 17.4782 3.10864 17.8289 3.10864 18.2609C3.10864 18.6929 3.45924 19.0435 3.89124 19.0435H13.8014C14.1403 20.1712 15.1765 21 16.413 21C17.6495 21 18.6849 20.1712 19.0245 19.0435H21.1086C21.5414 19.0435 21.8912 18.6929 21.8912 18.2609C21.8912 17.8289 21.5414 17.4782 21.1087 17.4782ZM16.413 19.4348C15.7658 19.4348 15.2391 18.9081 15.2391 18.2609C15.2391 17.6136 15.7658 17.087 16.413 17.087C17.0602 17.087 17.5869 17.6136 17.5869 18.2609C17.5869 18.9081 17.0602 19.4348 16.413 19.4348Z" fill="#084892"/>
<path d="M21.1087 4.95651H19.0246C18.6849 3.82878 17.6495 3 16.413 3C15.1765 3 14.1411 3.82878 13.8014 4.95651H3.89124C3.45924 4.95651 3.10864 5.30711 3.10864 5.73911C3.10864 6.17111 3.45924 6.5217 3.89124 6.5217H13.8014C14.1411 7.64947 15.1765 8.47825 16.413 8.47825C17.6495 8.47825 18.6849 7.64947 19.0246 6.52174H21.1087C21.5414 6.52174 21.8913 6.17114 21.8913 5.73914C21.8913 5.30714 21.5414 4.95651 21.1087 4.95651ZM16.413 6.91302C15.7658 6.91302 15.2391 6.38634 15.2391 5.73911C15.2391 5.09188 15.7658 4.56519 16.413 4.56519C17.0602 4.56519 17.5869 5.09188 17.5869 5.73911C17.5869 6.38634 17.0602 6.91302 16.413 6.91302Z" fill="#084892"/>
<path d="M21.1087 11.2175H11.1985C10.8588 10.0898 9.82343 9.26099 8.58693 9.26099C7.35043 9.26099 6.315 10.0898 5.97538 11.2175H3.89124C3.45924 11.2175 3.10864 11.5681 3.10864 12.0001C3.10864 12.4321 3.45924 12.7827 3.89124 12.7827H5.97534C6.315 13.9104 7.3504 14.7392 8.58689 14.7392C9.82339 14.7392 10.8588 13.9104 11.1984 12.7827H21.1086C21.5414 12.7827 21.8912 12.4321 21.8912 12.0001C21.8913 11.5681 21.5414 11.2175 21.1087 11.2175ZM8.58689 13.174C7.93966 13.174 7.41298 12.6473 7.41298 12.0001C7.41298 11.3529 7.93966 10.8262 8.58689 10.8262C9.23412 10.8262 9.76081 11.3529 9.76081 12.0001C9.76081 12.6473 9.23412 13.174 8.58689 13.174Z" fill="#084892"/>
</svg>
