<svg width="17" height="16" viewBox="0 0 17 16" fill="none" xmlns="http://www.w3.org/2000/svg">
<path d="M8.5 8.75001C8.91422 8.75001 9.25001 8.41422 9.25001 8C9.25001 7.58579 8.91422 7.25 8.5 7.25C8.08579 7.25 7.75 7.58579 7.75 8C7.75 8.41422 8.08579 8.75001 8.5 8.75001Z" stroke="#084892" stroke-width="1.5" stroke-linecap="round" stroke-linejoin="round"/>
<path d="M8.5 3.50001C8.91422 3.50001 9.25001 3.16422 9.25001 2.75C9.25001 2.33579 8.91422 2 8.5 2C8.08579 2 7.75 2.33579 7.75 2.75C7.75 3.16422 8.08579 3.50001 8.5 3.50001Z" stroke="#084892" stroke-width="1.5" stroke-linecap="round" stroke-linejoin="round"/>
<path d="M8.5 14C8.91422 14 9.25001 13.6642 9.25001 13.25C9.25001 12.8358 8.91422 12.5 8.5 12.5C8.08579 12.5 7.75 12.8358 7.75 13.25C7.75 13.6642 8.08579 14 8.5 14Z" stroke="#084892" stroke-width="1.5" stroke-linecap="round" stroke-linejoin="round"/>
</svg>
