<svg width="20" height="20" viewBox="0 0 20 20" fill="none" xmlns="http://www.w3.org/2000/svg">
<g clip-path="url(#clip0_2_845)">
<rect width="20" height="20" rx="10" fill="white"/>
<path d="M6.257 15.5C6.15033 15.5 6.05967 15.4627 5.985 15.388C5.91033 15.3133 5.873 15.2227 5.873 15.116V4.7C5.873 4.58267 5.91033 4.48667 5.985 4.412C6.05967 4.33733 6.15033 4.3 6.257 4.3H10.161C11.2383 4.3 12.1237 4.46533 12.817 4.796C13.521 5.12667 14.049 5.61733 14.401 6.268C14.7637 6.91867 14.9503 7.71333 14.961 8.652C14.9823 9.12133 14.993 9.53733 14.993 9.9C14.993 10.2627 14.9823 10.6733 14.961 11.132C14.9397 12.124 14.7583 12.9453 14.417 13.596C14.0757 14.236 13.5583 14.716 12.865 15.036C12.1823 15.3453 11.3077 15.5 10.241 15.5H6.257ZM8.097 13.66H10.161C10.7583 13.66 11.2437 13.5747 11.617 13.404C11.9903 13.2333 12.2623 12.9613 12.433 12.588C12.6143 12.204 12.7103 11.7027 12.721 11.084C12.7317 10.764 12.737 10.4867 12.737 10.252C12.7477 10.0067 12.7477 9.76667 12.737 9.532C12.737 9.28667 12.7317 9.00933 12.721 8.7C12.6997 7.82533 12.481 7.18 12.065 6.764C11.649 6.348 10.9877 6.14 10.081 6.14H8.097V13.66Z" fill="#084892"/>
</g>
<rect x="1" y="1" width="18" height="18" rx="9" stroke="#084892" stroke-width="2"/>
<defs>
<clipPath id="clip0_2_845">
<rect width="20" height="20" rx="10" fill="white"/>
</clipPath>
</defs>
</svg>
